# xmcd CD database file
#
# Track frame offsets:
#	150
#	9327
#	17748
#	30698
#	46396
#	59889
#	71688
#	81385
#	93165
#	102484
#	114917
#	125653
#	137152
#	153789
#	164930
#	177985
#
# Disc length: 2566 seconds
#
# Revision: 3
# Processed by: cddbd v1.5.2PL0 Copyright (c) Steve Scherf et al.
# Submitted via: CDex 1.50beta10
#
DISCID=de0a0410
DTITLE=Various Artist - Country Stars Of The Millenium Part 3
DYEAR=2000
DGENRE=Country
TTITLE0=Frankie Laine - Rawhide
TTITLE1=Johnny Cash - Country Boy
TTITLE2=Lynn Anderson - Rose Garden
TTITLE3=Skeeter Davis - Desperado
TTITLE4=Patti Page - Tennessee Waltz
TTITLE5=Dave Duddley - Yellow Rose Of Texas
TTITLE6=Pat Boone - Bernadine
TTITLE7=Freddy Fender - I'm Leaving It Up To You
TTITLE8=The Harden Trio - Tippytoeing
TTITLE9=Bobby Bare - The Year That Clinton Delaney Died
TTITLE10=Ferlin Husky - Wings Of A Dove
TTITLE11=Kenny Rogers - Me And Bobby McGhee
TTITLE12=Willie Nelson - Pretty Paper
TTITLE13=Don Williams - Spend Some Time With Me
TTITLE14=B.J.Thomas - I Just Can't Help Believing
TTITLE15=Glen Campbell - Rhinestone Cowboy
EXTD=YEAR: 2000
EXTT0=
EXTT1=
EXTT2=
EXTT3=
EXTT4=
EXTT5=
EXTT6=
EXTT7=
EXTT8=
EXTT9=
EXTT10=
EXTT11=
EXTT12=
EXTT13=
EXTT14=
EXTT15=
PLAYORDER=
